<?xml version="1.0" encoding="utf-8"?>
<!-- Svg Vector Icons : http://www.onlinewebfonts.com/icon -->
<!DOCTYPE svg PUBLIC "-//W3C//DTD SVG 1.1//EN" "http://www.w3.org/Graphics/SVG/1.1/DTD/svg11.dtd">
<svg version="1.1" xmlns="http://www.w3.org/2000/svg" xmlns:xlink="http://www.w3.org/1999/xlink" x="0px" y="0px" viewBox="0 0 1000 1000" enable-background="new 0 0 1000 1000" xml:space="preserve">
<metadata> Svg Vector Icons : http://www.onlinewebfonts.com/icon </metadata>
<g><path d="M814.6,731.6c29,0,53.2,9.8,72.9,29.4c19.6,19.6,29.4,43.9,29.4,72.8v5.2c0,14.5-1.6,30.5-5.1,48c-3.5,17.6-10.1,33.9-19.6,49.1c-9.6,15.1-23,27.9-39.8,38.3c-16.8,10.3-38.8,15.5-65.6,15.5c-26.2,0-47.7-5.3-64.6-16c-16.9-10.7-30.5-25.1-40.9-43.4c-10.3-18.2-17.9-39.8-22.7-64.6c-4.9-24.8-8.3-51.4-10.4-79.6c-2-28.2-3.3-57.7-3.6-88.3c-0.3-30.7-1.2-60.9-2.6-90.5c-1.4-44.7-4.3-83.6-8.8-116.2c-4.5-32.8-11.9-60-22.2-81.7c-10.3-21.7-24.1-37.9-41.3-48.6c-17.2-10.7-39.2-16-66.1-16c-31,0-58.1,3.8-81.2,11.4c-23,7.6-42.1,20.8-56.8,39.7c-14.8,18.9-26,44.5-33.6,76.6c-7.5,32-11.3,72.2-11.3,120.5c0,48.2-1.2,95.9-3.6,143.1c-2.5,47.2-8.1,89.4-17.1,126.6c-9,37.2-22,67.2-39.3,90c-17.2,22.7-40.7,34.1-70.3,34.1c-20,0-37.2-2.4-51.7-7.2c-14.4-4.8-26.7-11-36.7-18.6c-10.1-7.6-18.1-16.4-24.3-26.4c-6.2-10-11-20.2-14.5-30.4c-8.3-24.1-11.4-51.8-9.3-82.8c0.7-13.1,3.8-25.4,9.3-36.7c5.5-11.5,12.9-21.4,22.2-30c9.3-8.6,19.8-15.3,31.6-20.2c11.8-4.8,24.4-7.2,38.3-7.2c5.5,0,10.8,0.3,16,1.1c5.1,0.7,10.2,2,15,4c-0.7-22.7-1.9-46.5-3.7-71.3c-1.8-24.8-3.4-48.7-5.2-71.9c-1.7-23-3.3-44.2-4.7-63.5c-1.3-19.3-2-35.2-2-47.5c0-44.1,4.3-86.6,12.9-127.6c8.6-41,24.3-77.2,47.1-108.5c22.7-31.4,54.1-56.3,94.1-75c40-18.6,91.3-27.9,154-27.9c22.8,0,44.5,1,65.1,3.1c3.5,11.7,9.3,26.2,17.6,43.4c8.3,17.2,19.3,37.9,33.1,62c17.2,29.6,33.9,53.3,50.1,70.9c16.2,17.6,32.2,34.3,48.1,50.1c4.8,4.1,11.1,9.5,18.6,16c7.6,6.5,16,13,25.4,19.6c9.3,6.6,19.2,13.1,30,19.7c10.7,6.5,21.2,12.2,31.5,17c0,6.9,0.2,13.8,0.5,20.6c0.4,6.9,0.5,14.2,0.5,21.8c0,18.6-0.7,38.5-2,59.9c-1.3,21.4-3.1,43.3-5.2,65.7c-2.1,22.3-4.1,44.6-6.3,66.6c-2,22-4.1,43.1-6.2,63C789.8,734,801.6,731.6,814.6,731.6L814.6,731.6L814.6,731.6z M940.8,381.1c2.7,6.3,4.7,13.8,5.7,22.8c1.1,8.9-0.4,17.1-4.1,24.2c-3.9,7.3-10.3,12.1-19.6,14.5c-9.3,2.5-22.2,0.5-38.9-5.7c-8.3-3.4-19.4-9.6-33.6-18.6c-14.1-8.9-30-20.2-47.5-33.6c-17.6-13.5-36-29-55.3-46.5c-19.3-17.6-37.9-36.3-55.8-56.4c-20-22-38.5-44.5-55.3-67.2c-17-22.7-32-43.7-45.1-63c-15.1-22.7-29-44.5-41.3-65.1c-9.6-17.9-14.6-31.4-15-40.4c-0.3-8.9,2.5-14.5,8.4-16.5c5.9-2.1,13.6-1.5,23.2,1.5c9.7,3.1,19.7,7.7,30,14c4.8,3.4,12.6,9.5,23.2,18.1c10.7,8.6,23.3,19.8,37.7,33.6c9.7-8.3,21.4-18.1,35.2-29.4c13.8-11.4,27.6-21.7,41.4-31.1c13.7-9.3,26.3-16.5,37.7-21.7c11.4-5.2,19.8-6,25.4-2.6c6.9,4.8,18.1,13.6,33.6,26.4c15.5,12.7,31.2,26.2,47,40.3c16,14.1,29.9,27.4,42,39.8c12,12.4,18.4,20.6,19.1,24.8c0.7,3.4-1.5,12.8-6.7,27.9c-5.1,15.2-11.2,31.9-18.1,50.2c-6.9,18.3-13.8,36-20.8,53.2c-6.8,17.2-11.6,29.6-14.4,37.2c17.2,17.9,31.6,33.1,42.9,45.5C933,369.8,939.4,377.7,940.8,381.1L940.8,381.1L940.8,381.1z"/></g>
</svg>