<?xml version="1.0" encoding="utf-8"?>
<!-- Svg Vector Icons : http://www.onlinewebfonts.com/icon -->
<!DOCTYPE svg PUBLIC "-//W3C//DTD SVG 1.1//EN" "http://www.w3.org/Graphics/SVG/1.1/DTD/svg11.dtd">
<svg version="1.1" xmlns="http://www.w3.org/2000/svg" xmlns:xlink="http://www.w3.org/1999/xlink" x="0px" y="0px" viewBox="0 0 1000 1000" enable-background="new 0 0 1000 1000" xml:space="preserve">
<metadata> Svg Vector Icons : http://www.onlinewebfonts.com/icon </metadata>
<g><g transform="translate(0.000000,511.000000) scale(0.100000,-0.100000)"><path d="M7591.1,4855c-1697.3-888.3-3253.8-1721.1-3295.5-1760.8c-43.6-41.7-55.5-73.4-55.5-134.8c0-65.4,23.8-113,132.9-273.6c71.4-107.1,152.7-222.1,178.5-257.8l47.6-61.5l-293.5-154.7c-160.6-83.3-323.2-170.5-358.9-192.3c-69.4-39.7-101.1-39.7-323.2,7.9c-77.3,15.9-97.2,27.8-89.2,53.5c31.7,117,31.7,218.1,2,249.8c-39.7,39.7-117,41.6-146.7,4c-11.9-13.9-69.4-352.9-128.9-753.5c-91.2-636.5-101.1-729.7-77.3-765.4c33.7-47.6,109.1-51.6,146.7-7.9c13.9,17.9,29.7,67.4,37.7,113c7.9,61.5,19.8,81.3,41.6,77.3c79.3-11.9,2682.8-777.3,2694.7-791.2c7.9-7.9,150.7-210.2,315.3-446.1c164.6-235.9,323.2-448.1,352.9-469.9c120.9-97.2,103.1-105.1,1616,694c767.4,404.5,1409.8,749.5,1431.6,767.3c53.5,47.6,91.2,148.7,77.3,204.2c-17.8,65.4-1925.3,3807.1-1967,3852.7C7842.9,4908.5,7725.9,4924.4,7591.1,4855z M8729.2,2834.5C9252.7,1809.4,9683,950.8,9686.9,927c6-37.7-150.7-124.9-1384-773.3L6910.9-578l-41.6,47.6c-111,128.9-2432.9,3470-2427,3491.8c9.9,29.7,3289.5,1758.8,3315.3,1748.9C7769.5,4704.3,8207.7,3861.6,8729.2,2834.5z M4862.7,1983.8c85.3-120.9,150.7-222.1,146.7-226c-4-4-192.3,31.7-422.3,77.3c-293.5,59.5-406.5,89.2-386.7,101.1c43.6,27.8,483.8,263.7,497.7,265.7C4704,2203.9,4777.4,2104.8,4862.7,1983.8z M4361,1684.4l824.8-162.6l360.9-515.5c196.3-281.6,354.9-517.5,351-521.5c-7.9-7.9-2450.8,701.9-2464.7,715.8c-13.9,11.9,77.3,646.4,91.2,646.4C3530.2,1849,3906.9,1775.6,4361,1684.4z"/><path d="M7599,3371.8c-317.3-168.5-364.9-214.2-364.9-339.1c2-49.6,103.1-234,432.2-777.3c257.8-426.3,452.1-729.7,485.8-753.5c95.2-71.4,192.4-53.5,440.2,77.3c247.9,130.9,287.5,160.6,287.5,210.2c0,35.7-757.5,1528.8-844.7,1669.5c-33.7,49.6-63.5,73.4-93.2,73.4C7918.2,3532.4,7763.6,3459.1,7599,3371.8z M8273.2,2570.8c204.2-398.5,364.8-733.6,358.9-743.6c-21.8-33.7-329.1-182.4-356.9-170.5c-25.8,9.9-820.9,1318.6-836.8,1378.1c-5.9,23.8,45.6,61.5,206.2,144.8c117,63.4,224.1,115,236,115C7892.4,3294.5,8068.9,2969.3,8273.2,2570.8z"/><path d="M2683.5,2071.1c-21.8-5.9-51.6-19.8-63.5-29.7c-33.7-25.8-33.7-105.1,0-130.9c37.7-31.7,400.5-35.7,438.2-6c41.6,35.7,39.7,87.2-2,124.9C3018.6,2061.2,2758.9,2090.9,2683.5,2071.1z"/><path d="M2277.1,2011.6c-15.9-5.9-77.3-27.8-134.8-49.6c-126.9-47.6-158.6-97.2-113-168.5c37.7-57.5,59.5-55.5,271.7,17.9c170.5,59.5,210.2,95.2,178.5,164.6c-19.8,41.6-35.7,49.6-97.2,47.6C2340.5,2023.5,2292.9,2017.6,2277.1,2011.6z"/><path d="M1688.1,1660.6c-124.9-128.9-152.7-194.3-101.1-245.9c51.5-51.6,111-23.8,241.9,111c71.4,73.4,130.9,148.7,130.9,166.6c0,37.7-71.4,95.2-117,95.2C1826.9,1787.5,1757.5,1730,1688.1,1660.6z"/><path d="M2475.3,1387c-61.5-33.7-73.4-97.2-25.8-138.8c41.6-35.7,376.7-61.5,430.3-31.7c47.6,25.8,39.7,109.1-13.9,144.7C2800.5,1402.9,2538.8,1420.7,2475.3,1387z"/><path d="M2138.3,1323.6c-39.7-15.9-117-49.6-174.5-79.3c-89.2-45.6-103.1-59.5-103.1-111c0-107.1,61.5-111,267.7-21.8c158.6,67.4,178.5,83.3,184.4,132.9c6,35.7-4,65.4-27.8,81.3C2243.3,1357.3,2227.5,1355.3,2138.3,1323.6z"/><path d="M1614.8,982.5c-19.8-53.5,23.8-107.1,87.2-107.1c73.4,0,75.3,17.8,4,85.3C1640.6,1022.2,1630.6,1026.1,1614.8,982.5z"/><path d="M189.1,685.1c-29.7-5.9-63.5-29.7-75.4-51.6c-33.7-63.4,11.9-257.8,111-464c69.4-144.7,113-204.2,220.1-305.3C661-336.1,877.2-413.4,1232.1-417.4h212.2v-682.1v-682.1H954.5c-289.5,0-523.5-9.9-569.1-21.8c-91.2-25.8-162.6-93.2-182.4-168.5c-7.9-31.7,51.6-543.3,148.7-1255.2c89.2-660.3,160.6-1213.5,160.6-1225.4c0-19.8-47.6-25.8-174.5-25.8c-148.7,0-182.4-5.9-210.2-37.7c-45.6-49.6-33.7-103.1,27.8-134.8c71.4-35.7,5976.3-35.7,6047.7,0c27.8,13.9,53.5,45.6,55.5,73.4c13.9,89.2-31.7,99.2-426.3,99.2h-362.8v115l2,113l122.9,69.4c73.4,41.6,202.3,148.7,321.3,267.7c200.3,198.3,319.2,378.7,384.7,588.9c21.8,69.4,25.8,71.4,85.2,53.5c126.9-35.7,198.3-134.9,214.2-295.5c9.9-101.1,15.8-111,79.3-140.8c91.2-43.6,134.8-93.2,142.8-166.6c4-49.6,23.8-67.4,105.1-109.1c85.2-43.6,101.1-61.5,122.9-136.8c29.7-101.1,49.6-120.9,140.8-120.9c121,0,271.7-99.2,307.3-204.2c11.9-31.7-15.8-33.7-402.5-33.7c-349,0-418.4-4-444.2-31.7c-41.6-39.7-39.7-95.2,2-128.9c49.6-41.7,1074.7-51.6,1154-11.9c43.6,21.8,63.4,23.8,81.3,5.9c33.7-33.7,382.7-29.7,422.3,6c43.6,35.7,41.7,87.2-2,126.9c-27.8,25.8-77.3,33.7-214.1,33.7c-103.1,0-188.4-9.9-200.3-21.8c-15.8-15.9-33.7-15.9-61.5,0c-21.8,11.9-57.5,21.8-79.3,21.8c-25.8,0-43.6,23.8-61.5,81.3c-43.6,146.7-263.7,335.1-394.6,335.1c-27.8,0-55.5,25.8-85.2,79.3c-23.8,43.6-79.3,101.1-121,128.9l-75.3,49.6v452.1c0,325.2-6,458-23.8,475.9c-37.6,37.7-130.9,29.7-154.6-13.9c-9.9-21.8-19.8-178.5-21.8-352.9c-2-234-6-291.5-19.8-226c-35.7,182.4-190.4,341-378.8,386.7c-51.5,11.9-55.5,19.8-55.5,105.1c0,53.5,17.9,128.9,41.6,180.4c61.5,122.9,69.4,237.9,27.8,362.9c-65.4,196.3-281.6,354.9-485.8,354.9c-65.4,0-75.4,7.9-107.1,79.3c-43.6,101.1-188.4,228-295.4,257.8c-73.3,21.8-91.2,39.7-132.8,126.9c-124.9,253.8-469.9,321.2-694,134.8l-67.4-57.5l-85.3,37.7c-47.6,21.8-132.8,37.7-196.3,37.7c-109.1,2-117,5.9-204.2,95.2c-126.9,128.9-251.8,184.4-438.2,196.3c-186.4,9.9-329.2-27.7-458-122.9c-107.1-79.3-210.2-228-228-327.2c-7.9-39.7-31.7-91.2-53.5-115c-39.7-43.6-51.6-45.6-454.1-45.6h-412.4v378.7c0,222.1-7.9,392.6-19.8,416.4c-23.8,43.6-117,51.5-154.7,13.9c-17.9-17.8-23.8-136.8-23.8-416.4v-392.6h-138.8h-138.8v1181.8c0,775.3-7.9,1193.6-19.8,1219.4c-23.8,43.6-117,51.6-154.7,13.9c-15.9-15.9-23.8-107.1-25.8-273.6V112l-43.6,59.5c-168.5,228-388.6,392.6-628.6,468C643.2,679.1,308.1,704.9,189.1,685.1z M661,470.9c295.4-77.3,521.5-269.7,656.3-557.2c69.4-144.7,65.4-148.7-79.3-148.7c-341.1,0-616.7,128.9-771.3,362.8C405.2,221.1,314,431.3,314,478.9C314,508.6,546,502.7,661,470.9z M3829.6-1373.1c107.1-39.7,206.2-121,251.8-210.2c43.6-87.2,75.3-99.1,192.3-71.4c107.1,23.8,220.1-7.9,313.3-89.2c91.2-81.3,142.8-71.4,206.2,37.7c59.5,99.2,122.9,140.8,216.1,142.8c134.8,0,241.9-103.1,241.9-234c0-73.4,33.7-103.1,117-103.1c115,0,232-69.4,277.6-166.6c23.8-45.6,41.7-103.1,41.7-124.9c0-69.4,45.6-89.2,164.6-75.3c329.2,41.7,535.4-319.2,307.3-539.3c-115-111-255.8-134.8-404.5-67.4c-107.1,47.6-170.5,140.8-182.4,261.7c-4,53.5-21.8,107.1-37.7,120.9c-15.8,11.9-79.3,23.8-142.7,25.8c-79.3,2-136.8,15.9-184.4,45.6c-39.7,23.8-79.3,43.6-91.2,43.6c-9.9,0-65.4-31.7-122.9-69.4c-117-77.3-210.2-89.2-331.1-39.7c-105.1,45.6-156.6,5.9-168.5-128.9c-17.8-182.4-122.9-277.6-331.1-295.4c-75.4-7.9-142.8-17.8-146.7-21.8c-2-5.9-21.8-35.7-41.6-65.4c-19.8-31.7-65.4-75.3-101.1-95.2c-107.1-63.4-109.1-111-11.9-194.3c65.4-57.5,81.3-85.3,81.3-134.8c0-172.5-237.9-216.1-313.3-57.5c-33.7,67.4-9.9,134.8,65.4,194.3c83.3,63.5,65.4,126.9-49.6,184.4c-71.4,35.7-109.1,71.4-138.8,128.9c-51.6,101.1-122.9,109.1-208.2,19.8c-71.4-75.4-146.7-91.2-236-49.6c-85.3,39.7-119,119-101.1,228c17.8,101.1-11.9,138.8-107.1,138.8c-95.2,0-186.4,59.5-228,148.7c-29.7,63.5-31.7,87.3-13.9,150.7c33.7,113,121,166.6,269.7,162.6c140.8-2,168.5,15.9,168.5,107.1c0,83.3,41.6,168.5,107.1,210.2c31.7,21.8,51.6,59.5,61.5,117c31.7,192.3,142.8,317.3,327.2,374.8C3623.4-1339.4,3746.3-1345.3,3829.6-1373.1z M2663.7-2017.5c-107.1-49.6-182.4-122.9-228-224.1c-45.6-103.1-49.6-182.4-9.9-291.5l27.8-81.3h-989.4H474.6l-9.9,65.4c-41.6,249.9-73.4,517.5-63.5,541.3c9.9,23.8,190.4,27.8,1175.8,27.8C2725.2-1979.8,2741-1981.8,2663.7-2017.5z M5197.8-2624.3c39.7-15.9,93.2-29.7,117-29.7c37.7,0,53.5-19.8,81.3-101.1c37.7-105.1,148.7-232,247.9-283.6c117-59.5,333.1-71.4,473.9-23.8c41.6,13.9,43.6,9.9,33.7-51.6c-67.4-364.8-321.3-707.9-682.1-920l-148.7-87.3h-941.9H3435l-162.6,101.1c-416.4,255.8-664.2,650.4-666.2,1062.8c-2,89.2,4,166.6,9.9,172.5c5.9,5.9,37.7,2,71.4-7.9c51.5-17.9,61.5-35.7,71.4-101.1c29.7-230,315.3-380.7,541.3-285.5c63.4,25.8,75.3,25.8,119-4c33.7-21.8,45.6-41.6,35.7-63.5c-65.4-150.7-53.5-275.6,35.7-388.6c85.3-107.1,289.5-158.6,426.3-107.1c67.4,25.8,158.6,109.1,196.3,180.4c39.7,77.3,35.7,232-9.9,305.3c-33.7,55.5-33.7,61.5-4,101.1c21.8,25.8,69.4,45.6,132.9,53.5c190.4,27.8,406.5,198.3,436.2,347c9.9,49.6,17.8,51.5,134.8,53.5c93.2,0,150.7,13.9,222.1,51.6c53.5,27.8,99.1,51.5,99.1,53.5C5126.4-2596.5,5160.1-2608.4,5197.8-2624.3z M2400-2911.8c-9.9-132.9,45.6-394.6,115-547.3c79.3-174.5,162.6-293.5,323.2-458l138.8-140.8l-27.8-206.2l-27.8-204.2l-1094.5-5.9c-1029.1-4-1094.5-2-1104.4,29.7c-6,19.8-55.5,374.7-111,789.2c-55.5,414.4-105.1,773.3-109.1,799.1l-9.9,43.6h955.7h957.7L2400-2911.8z M3258.6-4234.3c67.4-31.7,69.4-37.7,69.4-138.8v-105.1h-99.1h-101.1l13.9,124.9c11.9,119,21.8,152.7,37.7,152.7C3183.2-4200.6,3218.9-4216.5,3258.6-4234.3z M5267.1-4393l6-85.3h-872.4h-874.4v89.2v89.2l868.5-4l866.5-5.9L5267.1-4393z"/><path d="M3928.7-2190c-29.7-47.6-29.7-57.5-4-105.1c23.8-41.7,43.6-51.6,107.1-51.6c63.5,0,83.3,9.9,107.1,51.6c25.8,47.6,25.8,57.5-4,105.1c-25.8,39.7-51.6,51.5-103.1,51.5C3980.3-2138.5,3954.5-2150.4,3928.7-2190z"/><path d="M6276.4-4018.2c-81.3-89.2-2-220.1,113-190.4c95.2,23.8,122.9,142.8,47.6,194.3C6377.5-3972.6,6316.1-3974.6,6276.4-4018.2z"/></g></g>
</svg>