<?xml version="1.0" encoding="utf-8"?>
<!-- Svg Vector Icons : http://www.onlinewebfonts.com/icon -->
<!DOCTYPE svg PUBLIC "-//W3C//DTD SVG 1.1//EN" "http://www.w3.org/Graphics/SVG/1.1/DTD/svg11.dtd">
<svg version="1.1" xmlns="http://www.w3.org/2000/svg" xmlns:xlink="http://www.w3.org/1999/xlink" x="0px" y="0px" viewBox="0 0 1000 1000" enable-background="new 0 0 1000 1000" xml:space="preserve">
<metadata> Svg Vector Icons : http://www.onlinewebfonts.com/icon </metadata>
<g><g transform="translate(0.000000,511.000000) scale(0.100000,-0.100000)"><path d="M2152,2991.8c-237.3-79.1-534-360-577.5-541.9c-19.8-79.1-43.5-91-110.7-71.2c-205.7,67.3-541.9,67.3-708,4c-213.6-79.1-450.9-308.5-557.7-538c-79.1-170.1-83.1-253.1-94.9-1653.4c-11.9-1720.6-4-1787.9,296.7-2108.3c225.5-241.3,443-328.3,751.5-300.6c126.6,11.9,269,31.6,312.5,47.5c67.2,19.8,91,7.9,110.7-79.1c15.8-59.3,114.7-193.8,217.6-296.7c478.6-478.6,1194.6-367.9,1526.8,237.3c114.7,209.6,118.7,237.3,130.5,803l15.8,581.5H5004h1538.7v-506.3c0-656.6,55.4-858.3,316.4-1119.4c348.1-348.1,834.6-395.6,1222.3-114.7c162.2,118.7,359.9,375.8,359.9,466.7c0,39.6,27.7,47.5,91,27.7c47.5-15.8,189.9-35.6,316.4-47.5c308.5-27.7,526.1,59.3,751.5,300.6c300.6,320.4,308.5,387.7,296.7,2108.3c-11.9,1408.1-15.8,1483.3-94.9,1653.4c-110.8,233.4-340.2,454.9-553.8,538c-170.1,63.3-506.3,63.3-712-4c-67.2-19.8-91-7.9-110.8,75.2c-15.8,59.3-110.8,193.8-213.6,296.7c-138.4,146.4-241.3,209.7-399.5,257.1c-265,79.1-296.7,79.1-553.8,0c-154.2-43.5-265-114.7-399.5-253.2c-261.1-257.1-316.4-458.8-316.4-1115.5v-506.3H5004H3465.3l-15.8,585.4c-11.9,541.9-19.8,597.3-118.7,783.2c-134.5,253.1-348.1,435.1-601.2,510.3C2480.3,3086.7,2417.1,3086.7,2152,2991.8z M2678.1,2358.9c59.3-47.5,122.6-150.3,146.4-229.4c55.4-197.8,55.4-3852.7,0-4050.4c-106.8-383.7-573.5-411.4-715.9-43.5c-47.5,126.5-47.5,4010.9,0,4137.4C2207.4,2426.2,2480.3,2513.2,2678.1,2358.9z M7780.7,2335.2c59.3-55.4,114.7-158.2,126.6-229.4c11.9-67.3,19.8-1016.6,11.9-2108.3l-11.9-1985.7l-114.7-118.7c-209.6-221.5-530-122.6-617.1,185.9c-51.4,193.8-55.4,3852.7,0,4038.6C7266.5,2438,7571.1,2544.8,7780.7,2335.2z M1329.3,1730l130.5-114.7l11.9-1447.7c11.9-1570.3,7.9-1605.9-209.6-1748.3c-138.4-91-348.1-43.5-454.9,98.9c-75.2,110.8-79.1,170.1-79.1,1594.1c0,1293.4,7.9,1487.3,63.3,1566.4C925.8,1872.4,1151.3,1892.2,1329.3,1730z M9181,1698.4c91-110.7,91-114.7,91-1594.1c0-1344.8-7.9-1491.2-71.2-1566.4c-162.2-201.7-348.1-221.5-530-59.3l-130.5,114.7v1511v1511l134.5,118.7c110.7,98.9,154.2,114.7,276.9,94.9C9042.5,1817,9125.6,1765.6,9181,1698.4z M6542.6,104.3v-435.1H5000H3457.4v435.1v435.1H5000h1542.6V104.3z"/></g></g>
</svg>