<?xml version="1.0" encoding="utf-8"?>
<!-- Svg Vector Icons : http://www.onlinewebfonts.com/icon -->
<!DOCTYPE svg PUBLIC "-//W3C//DTD SVG 1.1//EN" "http://www.w3.org/Graphics/SVG/1.1/DTD/svg11.dtd">
<svg version="1.1" xmlns="http://www.w3.org/2000/svg" xmlns:xlink="http://www.w3.org/1999/xlink" x="0px" y="0px" viewBox="0 0 1000 1000" enable-background="new 0 0 1000 1000" xml:space="preserve">
<metadata> Svg Vector Icons : http://www.onlinewebfonts.com/icon </metadata>
<g><g><g id="Layer_39_36_"><path d="M328,148.4V10h-85.3v138.4v20.5V990h514.4V148.4H328z M683,544.7l-365.9-1.2V238.7l365.7-0.2L683,544.7z M449.9,828.6v-52.9h100.3v52.9H449.9z M550.1,858.8v52.8H449.9v-52.8H550.1z M449.9,745.6v-52.7h100.3v52.7H449.9z M461.2,606.9c0-20.8,16.9-37.7,37.7-37.7c20.8,0,37.7,16.9,37.7,37.7c0,20.8-16.9,37.7-37.7,37.7C478.1,644.5,461.2,627.7,461.2,606.9z M433.4,193.4h133.3v12H433.4V193.4z M315.9,585.1h101.1v43.5H315.9V585.1z M417.4,911.6H317.1v-52.8h100.2V911.6z M417.4,828.6H317.1v-52.9h100.2V828.6z M417.4,745.6H317.1v-52.7h100.2V745.6z M566.6,956H433.4v-11.9h133.3V956z M682.8,911.6H582.5v-52.8h100.3V911.6z M682.8,828.6H582.5v-52.9h100.3V828.6z M682.8,745.6H582.5v-52.7h100.3V745.6z M684.1,628.7h-101v-43.5h101V628.7z"/></g></g><g></g><g></g><g></g><g></g><g></g><g></g><g></g><g></g><g></g><g></g><g></g><g></g><g></g><g></g><g></g></g>
</svg>